<?xml version="1.0" encoding="utf-8"?>
<!-- Generator: Adobe Illustrator 28.3.0, SVG Export Plug-In . SVG Version: 6.00 Build 0)  -->
<svg version="1.1" id="Layer_1" xmlns="http://www.w3.org/2000/svg" xmlns:xlink="http://www.w3.org/1999/xlink" x="0px" y="0px"
	 viewBox="0 0 1673.7 1190" style="enable-background:new 0 0 1673.7 1190;" xml:space="preserve">
<style type="text/css">
	.st0{opacity:4.000000e-02;}
</style>
<g class="st0">
	<g id="Layer_16">
		<path d="M232.5,156.6c-36.9-44.1-57.9-73.5-39.8-104.5c15.8-26.9,58.6-40.7,111-10.1c5.6,3.3,12.1,8.4,17.1,12.7
			c-11.5,5.6-22.8,16.7-29.6,28.4c-16.1,27.4-7.8,57.5,14.6,70.6c20.3,11.9,44.5,2.1,55.1-16.2c7.1-12.2,13.8-29.4,6.8-54.7
			c-1-4-3.1-8.6-5.2-13.3c13.2-0.4,25.7,2.8,36.9,9.3c6.6,3.9,14.3,3.6,17.5-2c3.9-6.6,1.5-14.2-5.1-18
			c-21.4-12.5-44.3-16.4-65.4-13c-8.2-8.2-18.2-16.8-30.4-23.9C249-17.2,192.1,0.7,169.8,38.8c-28.8,49.3,7.2,91.5,43.7,134
			c44.4,51.2,71.5,92.3,43.2,140.6c-13.7,23.4-39.7,37.5-69.4,35.8c35.4-63.9,13.1-139-52.9-177.6C86.7,143.6,32,151.9,9.7,190
			c-28.2,48.3,7.7,111.6,72.7,149.6c10.7,6.2,20.6,11.4,30.4,15.7c9.7,4.3,19.3,7.9,27.8,10.8c-21.2,17.6-46,24.9-65.6,22.3
			c-5.8-0.6-10.7,1.9-13.4,6.5c-3.6,6.1-0.9,13.1,5.7,17c9.1,5.4,61.4,4.6,102.9-39.4c50.5,7,88.9-12.1,108.9-46.1
			C318.7,258.9,271.2,202.5,232.5,156.6L232.5,156.6z M338,73.1c13.6,25.7,5.3,43.4,0.6,51.5s-13,12.8-20.6,8.4
			c-10.2-5.9-12.8-22.5-4.5-36.7C320.1,85.1,328.5,77.7,338,73.1L338,73.1z M159.6,346.6c-20.6-4.5-42.9-14.2-65.2-27.2
			C40,287.5,12.2,237.1,31.8,203.6c16.1-27.4,56.6-30.3,90.2-10.7C185,229.8,194.4,294,159.6,346.6z"/>
	</g>
	<g id="Layer_15">
		<path d="M641.3,416.3c-32.5-19-64.7-3.8-78.9,20.6s-9.7,51.6,19.7,68.9c12.7,7.4,18.5-0.1,20.3-3.1c3.6-6.1,1.5-14.2-5.1-18
			c-8.6-5.1-23.9-14-12-34.3c7.1-12.2,23.3-24.6,42.6-13.3c24.4,14.3,16.5,46.5,4.6,66.8c-25.3,43.2-76.9,77.8-113.5,56.4
			c-25.9-15.2-18.4-52.4-3-78.8c6.2-10.7,16.1-24,23.6-29.8c1.4-1.2,2.8-2.5,4-4.5c3.3-5.6,2-13.9-4.1-17.4
			c-4.6-2.7-11.2-1.8-15.4,1.9c-13.1,10.8-22.9,22.8-31.2,37c-27.7,47.3-22.4,91.9,12.6,112.4c51.8,30.3,118-9.4,149.9-63.7
			C679,476.6,674.8,435.9,641.3,416.3z"/>
	</g>
	<g id="Layer_14">
		<path d="M750.7,668.7c-3.6-2.1-7-2-10.5-0.7c-14.9,5.6-32.2,3.7-45.4-4c-36.6-21.4-24-55.7-13.9-73
			c31.8-54.4,86.9-65.8,112.3-50.9c13.2,7.7,16.2,19,10.2,29.2c-13.4,22.9-47.4,22.7-71.6,9.3c-6.9-3.4-14.5-1-17.7,4.6
			c-3.9,6.6-1.2,13.7,4.9,17.2c30,17.5,83.7,22.4,107.2-17.8c11.9-20.3,10.7-46.2-19.8-64.1c-40.1-23.5-111-4.9-148.5,59.1
			c-25.3,43.2-15.5,83.7,23.1,106.3c31,18.1,67.3,12.1,72.9,2.4C757.9,679.7,756.8,672.2,750.7,668.7L750.7,668.7z"/>
	</g>
	<g id="Layer_13">
		<path d="M1044.7,660.6c-13.4-8.5-23.3-15-30.4-19.2c9.1-9.7,31.5-32.8,45.5-45c1.1-0.7,3.1-3,4.3-5c3.6-6.1,0.9-13.1-5.7-17
			c-4.9-2.2-10.7-1.5-14.9,2.2c-17.5,17.1-37.3,36.9-51.1,51.2c-18.6-10.2-40.2-22.2-48.6-8c-3.3,5.6-1.5,10.7,2.1,12.8
			c7.1,4.2,14.2,4.9,28.9,13.5c-32.3,33-52,59.6-66.2,84c-22.9,39.1-22.9,67.1,0.1,86c0.5,0.3,2.8,2.3,3.3,2.6c6.4,3,14.5,1,18-5.1
			c3.3-5.6,1.7-13.3-3.9-16.6c-4.5-4-17.7-15.2,5.8-55.3c15.2-25.9,38.5-55.2,66.7-82.4c9.3,6.2,26,17.3,35.7,22.9
			c5.6,3.3,12.1,1.6,15.6-4.5C1052.9,672.2,1049.7,664.9,1044.7,660.6L1044.7,660.6z"/>
	</g>
	<g id="Layer_12">
		<path d="M1166.9,728c-25.4-14.9-61.8-15.7-92.6,11.3c15.9-24.8,11.8-50.4,2.1-56.1c-5.6-3.3-13.7-1.2-17.2,4.9
			c-1.8,3-3.1,6.4-1.7,9.9c2.7,10.5,2.2,21.8-10.8,44.1c-9.8,16.8-72.8,91.8-74.9,95.3c-3.6,6.1-2.5,13.6,3.6,17.1
			c5.6,3.3,12.2,2.4,16.8-3.1l12.9-15c49.7-58.2,96.2-114.2,150.8-86.4c6.4,3,13.1,2.2,16.6-3.9
			C1176.4,739.8,1173.5,731.9,1166.9,728L1166.9,728z"/>
	</g>
	<g id="Layer_11">
		<path d="M1290.5,870c20.5-35.1,13.7-64.3-15.2-81.2c-55.9-32.7-135.6,19.6-166.5,72.4c-22.3,38.1-10.4,65.5,9.9,77.4
			c36.6,21.4,72.8-3.1,77.8-11.8c3.6-6.1,2.5-13.6-4.1-17.4c-4.1-2.4-9.6-2.2-13.5,1c-13.1,10.8-30.4,17-44.1,9s-14.1-26-3.1-44.8
			c27.1-46.2,90.5-88.2,129.2-65.6c13.2,7.7,21.1,24.6,6.8,49c-10.4,17.8-25.6,35.5-39.6,52.5c-13.2,16.8-24.6,29.2-30.9,39.9
			s-11.2,26.2-0.1,32.7c6.1,3.6,14.7,1.8,17.9-3.8c1.5-2.5,1.4-4.7,1.5-7.3c0.4-1.8,1.1-4.1,2.9-7.2c5.9-10.2,19.1-25.7,28.9-37.7
			C1263.1,909.9,1279.2,889.3,1290.5,870L1290.5,870z"/>
	</g>
	<g id="Layer_10">
		<path d="M1430.5,911.7c9.1,5.3,11.6,12.9,12.1,20.1c0.5,5,2.8,9.2,6.4,11.2c6.6,3.9,13.7,1.2,17.2-4.9c1.2-2,2.5-5.4,2.6-8
			c1.9-12.5-3.2-27.1-24.1-39.3c-50.3-29.4-119,7.5-151.4,62.8c-26.8,45.7-14.8,80,16.7,98.5c38.6,22.6,80.6,5.6,86.3-4.1
			c3.9-6.6,3.3-13.8-2.8-17.3c-4.6-2.7-9.4-1.4-13.5,1c-20.9,12.3-42.8,9.1-56.6,1c-11.2-6.5-31.1-25-7.3-65.7
			C1338.3,929.3,1390.9,888.5,1430.5,911.7L1430.5,911.7z"/>
	</g>
	<g id="Layer_9">
		<path d="M1662.6,1029.1c3.6-6.1,1.4-14.1-4.7-17.7c-6.1-3.6-12.3-1.1-16.1,4.2c-12.5,17.9-34.6,28.8-51.5,33.3
			c-3.4-19.8-12.3-42-29.4-58.1c12.9-15,25.1-27.6,35.2-38c23.3-25.9,50.3-54.5,64.3-78.3c9.5-16.3,20.5-35.1,6.8-43.1
			c-1.5-0.9-3.8-1.6-5.2-1.7c-5-0.8-10.4,1.4-13.4,6.5c-0.6,1-1,2.8-1.4,4.7c0,3.4-3.3,10.3-9.3,20.5
			c-12.2,20.8-33.4,43.2-70.7,83.5c-7.4,8-18.2,19.4-27,29.9c-32-18.7-61-11.1-74.4,11.7c-8.9,15.2-7.2,36.7,13.5,59.7
			c-10.4,13-20.2,26.4-26.5,37.1c-8.3,14.2-20.4,37.2-6.2,45.5c6.1,3.6,13.9,2,17.7-4.6c1.2-2,1.6-3.9,1.4-6
			c0.4-1.8,1.5-7.3,9.8-21.5c5.4-9.2,13.9-22.6,23.7-34.6c24.6,15.1,51.4,17.1,67.6,15c2.7,31.6-6.2,66.6-21.4,92.5
			c-7.4,12.7,1.7,18.1,2.7,18.7c3,1.8,12.6,5.3,19.1-5.9c18.1-31,30-71.1,24.7-109.7C1611.9,1070.3,1650.1,1050.4,1662.6,1029.1
			L1662.6,1029.1z M1493.6,1027.7c-3.7-4.2-6.3-9.1-7.3-13.2c-1.2-4.8-0.6-10.6,2.1-15.2c7.7-13.2,23.3-13,35.8-6.3
			C1513.6,1003.9,1502.7,1016.7,1493.6,1027.7L1493.6,1027.7z M1515.2,1044.4l-1-0.6c9.8-12,20.6-24.8,31.1-35.7
			c11.6,11.6,19.6,30.6,21,45.7C1551.2,1057.3,1531.9,1054.2,1515.2,1044.4L1515.2,1044.4z"/>
	</g>
	<g id="Layer_4">
		<path d="M503.2,345.5c-1.7-1-3.2-2.4-4.3-4.2c-11.7-19.3-33.7-33.9-56.1-37.2c-6.7-1-11.3-7.2-10.4-13.9s7.2-11.3,13.9-10.4
			c29.8,4.4,57.9,23,73.5,48.7c3.5,5.8,1.7,13.3-4.1,16.9C511.8,347.8,507,347.7,503.2,345.5L503.2,345.5z"/>
	</g>
	<g id="Layer_3">
		<path d="M532,315.6c-1.8-1.1-3.4-2.6-4.5-4.6c-10.3-18.3-30-33.4-50.4-38.5c-6.6-1.7-10.6-8.3-8.9-14.9s8.3-10.6,14.9-8.9
			c27,6.8,52.2,26.1,65.8,50.3c3.3,5.9,1.2,13.4-4.7,16.7C540.2,318,535.6,317.8,532,315.6L532,315.6z"/>
	</g>
	<g id="Layer_2_00000103977662778656370020000004345742849010827907_">
		<path d="M626.9,283.2c-27.3,43.7-65.6,78.4-99.4,109c-4.1,3.7-9.9,4.1-14.4,1.5c-1.1-0.6-2-1.4-2.9-2.4c-4.5-5-4.2-12.8,0.9-17.3
			c32.6-29.5,69.6-63,95.1-103.8c16.6-26.6,21.4-48.3,14.3-64.5c-11.3-25.6-46.6-35.3-72-29.1c-29.3,7.2-57.1,26.2-79.2,46.2
			l-0.2,0.2c0,0-0.1,0.1-0.1,0.1l-21.1,19.7c-15.3,15.6-74.4,85.8-109,131c45-41.9,82-48.2,109.4-32.1c40.1,23.5,21.6,70.6,8.8,92.4
			c-24.7,42.2-59.7,77.6-63.9,81.3c-4.5,4.2-10.7,5.4-15.7,2.4c-6.6-3.9-8.4-12.4-5.1-18c0.6-1,1.7-1.7,2.3-2.7
			c13.3-13.4,40.6-43.8,59.6-76.3c22.6-38.6,11.6-49.1-1.1-56.6c-33-19.3-113.7,33.7-139.6,94.3c-2.5,6.7-10.6,8.8-17.2,4.9
			c-5.6-3.3-7.3-9.7-5.3-15.4c6.4-16.7,11-27,20.8-43.8c31.7-54.1,80.3-119.2,123.6-164.4c31.1-32.5,64.2-62.7,106.4-79.9
			c41.5-17,100.8-10.1,121.2,35.8C653.4,219.9,648.1,249.3,626.9,283.2L626.9,283.2z"/>
	</g>
</g>
</svg>
